{"accessors":[{"bufferView":2,"componentType":5126,"count":6755,"max":[0.9931958317756653,0.10815049707889557,1.6683416366577148],"min":[-1.024193286895752,-0.3049887716770172,-1.6684393882751465],"type":"VEC3"},{"bufferView":2,"byteOffset":81060,"componentType":5126,"count":6755,"max":[0.9999984502792358,1,0.9999895095825195],"min":[-0.9999912977218628,-1,-0.9999997615814209],"type":"VEC3"},{"bufferView":1,"componentType":5126,"count":6755,"max":[1.000000238418579,1.0000003576278687],"min":[0,0],"type":"VEC2"},{"bufferView":0,"componentType":5125,"count":33360,"type":"SCALAR"},{"bufferView":2,"byteOffset":162120,"componentType":5126,"count":1023,"max":[0.45431339740753174,0.02129204384982586,1.3073127269744873],"min":[-0.6140413880348206,-0.10233994573354721,-1.345660924911499],"type":"VEC3"},{"bufferView":2,"byteOffset":174396,"componentType":5126,"count":1023,"max":[0.8522984385490417,1,0.9906190633773804],"min":[-0.9697170257568359,0.03412000089883804,-0.9528128504753113],"type":"VEC3"},{"bufferView":1,"byteOffset":54040,"componentType":5126,"count":1023,"max":[0.5000001788139343,0.9944039583206177],"min":[0.25271812081336975,0.005259187892079353],"type":"VEC2"},{"bufferView":0,"byteOffset":133440,"componentType":5125,"count":5376,"type":"SCALAR"},{"bufferView":2,"byteOffset":186672,"componentType":5126,"count":6498,"max":[0.5802850127220154,0.051540158689022064,1.3242108821868896],"min":[-0.6862107515335083,-0.16989600658416748,-1.2687997817993164],"type":"VEC3"},{"bufferView":2,"byteOffset":264648,"componentType":5126,"count":6498,"max":[0.9999967813491821,1,1],"min":[-0.9999004602432251,-1,-0.9999992847442627],"type":"VEC3"},{"bufferView":1,"byteOffset":62224,"componentType":5126,"count":6498,"max":[1.000000238418579,1.0139979124069214],"min":[0,0],"type":"VEC2"},{"bufferView":0,"byteOffset":154944,"componentType":5125,"count":27264,"type":"SCALAR"}],"asset":{"extras":{"author":"321_Blender (https://sketchfab.com/321_Blender)","license":"CC-BY-4.0 (http://creativecommons.org/licenses/by/4.0/)","source":"https://sketchfab.com/3d-models/tooth-buddies-d6552ac4a4864492a14fccf1f1d6a4cb","title":"Tooth Buddies"},"generator":"Sketchfab-13.19.0","version":"2.0"},"bufferViews":[{"buffer":0,"byteLength":264000,"name":"floatBufferViews","target":34963},{"buffer":0,"byteLength":114208,"byteOffset":264000,"byteStride":8,"name":"floatBufferViews","target":34962},{"buffer":0,"byteLength":342624,"byteOffset":378208,"byteStride":12,"name":"floatBufferViews","target":34962}],"buffers":[{"byteLength":720832,"uri":"data:application/octet-stream;base64,"}],"materials":[{"doubleSided":true,"name":"Material.006","pbrMetallicRoughness":{"baseColorFactor":[0.887923,0.141263,0.144129,1],"metallicFactor":0,"roughnessFactor":0.433333}},{"doubleSided":true,"name":"Material.008","pbrMetallicRoughness":{"baseColorFactor":[0.4286904966139067,0.10224173308810128,0.12743768043564732,1],"metallicFactor":0.5}},{"doubleSided":true,"name":"Material.007","pbrMetallicRoughness":{"baseColorFactor":[1,0.991102,0.973445,1],"metallicFactor":0,"roughnessFactor":0.5}}],"meshes":[{"name":"Object_0","primitives":[{"attributes":{"NORMAL":1,"POSITION":0,"TEXCOORD_0":2},"indices":3,"material":0,"mode":4}]},{"name":"Object_1","primitives":[{"attributes":{"NORMAL":5,"POSITION":4,"TEXCOORD_0":6},"indices":7,"material":1,"mode":4}]},{"name":"Object_2","primitives":[{"attributes":{"NORMAL":9,"POSITION":8,"TEXCOORD_0":10},"indices":11,"material":2,"mode":4}]}],"nodes":[{"children":[1],"matrix":[1,0,0,0,0,2.220446049250313e-16,-1,0,0,1,2.220446049250313e-16,0,0,0,0,1],"name":"Sketchfab_model"},{"children":[2],"name":"root"},{"children":[3],"matrix":[1,0,0,0,0,2.220446049250313e-16,1,0,0,-1,2.220446049250313e-16,0,0,0,0,1],"name":"GLTF_SceneRootNode"},{"children":[4,5,6],"matrix":[0,-0.4628906846046448,0,0,0.4628906846046448,0,0,0,0,0,0.4628906846046448,0,-1.648959994316101,5.001463890075684,0,1],"name":"Plane.003_5"},{"mesh":0,"name":"Object_4"},{"mesh":1,"name":"Object_5"},{"mesh":2,"name":"Object_6"}],"scene":0,"scenes":[{"name":"Sketchfab_Scene","nodes":[0]}]}